<svg width="109" height="28" viewBox="0 0 109 28" fill="none" xmlns="http://www.w3.org/2000/svg">
<rect y="0.0899048" width="109" height="27" rx="13.5" fill="#E19B14" fill-opacity="0.96"/>
<mask id="mask0_191_1211" style="mask-type:alpha" maskUnits="userSpaceOnUse" x="12" y="3" width="20" height="21">
<rect x="12" y="3.5899" width="20" height="20" fill="#D9D9D9"/>
</mask>
<g mask="url(#mask0_191_1211)">
<path d="M19.935 11.9803C19.9845 11.1793 20.385 10.3887 21.0794 9.90496C20.9441 9.62409 20.6658 9.42903 20.3356 9.42903H19.5709L20.3694 8.85688C20.5566 8.72424 20.6008 8.46417 20.4656 8.27692L20.2237 7.93883C20.0911 7.75158 19.831 7.70736 19.6438 7.8426L18.8115 8.43816L19.1106 7.64235C19.1912 7.42649 19.082 7.18722 18.8662 7.1066L18.476 6.96096C18.2602 6.88034 18.0209 6.98957 17.9403 7.20543L17.4228 8.5838L16.9052 7.20283C16.8246 6.98697 16.5853 6.87774 16.3695 6.95836L15.9794 7.104C15.7635 7.18462 15.6543 7.42649 15.7375 7.63975L16.0366 8.43556L15.2018 7.8426C15.0145 7.70996 14.7544 7.75158 14.6218 7.93883L14.3799 8.27692C14.2473 8.46417 14.2889 8.72424 14.4762 8.85688L15.2746 9.42903H14.51C14.0496 9.42903 13.6777 9.80094 13.6777 10.2613V19.4158C13.6777 19.8761 14.0496 20.248 14.51 20.248H18.9026C18.7595 20.0009 18.6711 19.72 18.6711 19.4158V13.5902C18.6711 12.8126 19.212 12.1598 19.935 11.9803ZM19.5033 19.4158C19.5033 19.8761 19.8752 20.248 20.3356 20.248H24.4967V16.9191H19.5033V19.4158ZM25.3289 20.248H29.49C29.9504 20.248 30.3223 19.8761 30.3223 19.4158V16.9191H25.3289V20.248ZM29.49 12.7579H28.9595C29.0271 12.5603 29.0739 12.3548 29.0739 12.139C29.0739 11.2157 28.3717 10.2613 27.1988 10.2613C25.9479 10.2613 25.2249 11.5018 24.9128 12.2196C24.5981 11.5018 23.8751 10.2613 22.6268 10.2613C21.4539 10.2613 20.7517 11.2157 20.7517 12.139C20.7517 12.3548 20.7959 12.5603 20.8661 12.7579H20.3356C19.8752 12.7579 19.5033 13.1298 19.5033 13.5902V16.0869H24.4967V12.7579H24.8946L24.9128 12.7527L24.931 12.7579H25.3289V16.0869H30.3223V13.5902C30.3223 13.1298 29.9504 12.7579 29.49 12.7579ZM22.4161 12.7579C22.3459 12.7215 22.2835 12.6799 22.2289 12.6331C22.039 12.4667 22 12.2742 22 12.139C22 11.8867 22.1665 11.5096 22.6268 11.5096C23.1131 11.5096 23.5526 12.2222 23.7841 12.7579H22.4161ZM27.5967 12.6331C27.5421 12.6799 27.4797 12.7215 27.4095 12.7579H26.0415C26.2704 12.23 26.7125 11.5096 27.1988 11.5096C27.6592 11.5096 27.8256 11.8867 27.8256 12.139C27.8256 12.2742 27.7866 12.4667 27.5967 12.6331Z" fill="white"/>
</g>
<path d="M37.4954 18.5899V7.68081H41.6716C42.4599 7.68081 43.1151 7.8051 43.6371 8.05368C44.1627 8.29871 44.5551 8.63429 44.8143 9.06043C45.0771 9.48657 45.2085 9.96952 45.2085 10.5093C45.2085 10.9532 45.1233 11.3332 44.9528 11.6492C44.7824 11.9617 44.5533 12.2156 44.2657 12.4109C43.978 12.6062 43.6566 12.7465 43.3015 12.8317V12.9383C43.6886 12.9596 44.0597 13.0785 44.4148 13.2952C44.7735 13.5082 45.0665 13.8101 45.2937 14.2007C45.521 14.5913 45.6346 15.0636 45.6346 15.6176C45.6346 16.1822 45.4979 16.69 45.2245 17.141C44.951 17.5885 44.5391 17.9418 43.9887 18.2011C43.4383 18.4603 42.7458 18.5899 41.9113 18.5899H37.4954ZM39.4716 16.9386H41.597C42.3143 16.9386 42.831 16.8019 43.1471 16.5285C43.4667 16.2515 43.6265 15.8964 43.6265 15.4631C43.6265 15.14 43.5466 14.8488 43.3868 14.5895C43.227 14.3268 42.9997 14.1208 42.7049 13.9717C42.4102 13.819 42.0586 13.7426 41.6503 13.7426H39.4716V16.9386ZM39.4716 12.3204H41.4265C41.7674 12.3204 42.0746 12.2582 42.3481 12.1339C42.6215 12.0061 42.8363 11.8268 42.9926 11.5959C43.1524 11.3616 43.2323 11.0846 43.2323 10.765C43.2323 10.3424 43.0831 9.99438 42.7848 9.72094C42.4901 9.4475 42.0515 9.31078 41.4691 9.31078H39.4716V12.3204ZM50.8908 18.7497C50.0704 18.7497 49.362 18.5793 48.7654 18.2383C48.1724 17.8939 47.716 17.4074 47.3964 16.7788C47.0768 16.1467 46.917 15.4028 46.917 14.5469C46.917 13.7053 47.0768 12.9667 47.3964 12.331C47.7196 11.6918 48.1706 11.1947 48.7494 10.8395C49.3283 10.4809 50.0083 10.3016 50.7896 10.3016C51.2938 10.3016 51.7697 10.3832 52.2171 10.5466C52.6681 10.7064 53.0658 10.955 53.4103 11.2923C53.7583 11.6297 54.0317 12.0594 54.2306 12.5814C54.4295 13.0998 54.5289 13.7177 54.5289 14.4351V15.0263H47.8226V13.7266H52.6805C52.677 13.3573 52.5971 13.0288 52.4408 12.7412C52.2846 12.45 52.0662 12.2209 51.7856 12.054C51.5087 11.8871 51.1855 11.8037 50.8162 11.8037C50.422 11.8037 50.0758 11.8996 49.7775 12.0913C49.4792 12.2795 49.2466 12.5281 49.0797 12.8371C48.9163 13.1425 48.8329 13.478 48.8293 13.8438V14.9784C48.8293 15.4543 48.9163 15.8626 49.0903 16.2035C49.2643 16.5409 49.5076 16.8001 49.8201 16.9812C50.1326 17.1588 50.4984 17.2476 50.9174 17.2476C51.1979 17.2476 51.4518 17.2085 51.6791 17.1304C51.9064 17.0487 52.1035 16.9297 52.2704 16.7735C52.4373 16.6172 52.5633 16.4237 52.6486 16.1929L54.449 16.3953C54.3354 16.8712 54.1187 17.2866 53.7991 17.6418C53.4831 17.9933 53.0783 18.2668 52.5847 18.4621C52.091 18.6538 51.5264 18.7497 50.8908 18.7497ZM58.0885 13.7959V18.5899H56.1602V10.4081H58.0032V11.7984H58.0991C58.2873 11.3403 58.5874 10.9763 58.9993 10.7064C59.4148 10.4365 59.928 10.3016 60.5388 10.3016C61.1034 10.3016 61.5952 10.4223 62.0142 10.6638C62.4368 10.9052 62.7635 11.255 62.9944 11.7131C63.2287 12.1712 63.3441 12.727 63.3406 13.3804V18.5899H61.4123V13.6787C61.4123 13.1318 61.2703 12.7039 60.9862 12.3949C60.7057 12.086 60.3168 11.9315 59.8196 11.9315C59.4823 11.9315 59.1822 12.0061 58.9194 12.1552C58.6602 12.3008 58.456 12.5121 58.3069 12.7891C58.1613 13.0661 58.0885 13.4017 58.0885 13.7959ZM68.923 18.7497C68.1027 18.7497 67.3942 18.5793 66.7976 18.2383C66.2046 17.8939 65.7483 17.4074 65.4287 16.7788C65.1091 16.1467 64.9493 15.4028 64.9493 14.5469C64.9493 13.7053 65.1091 12.9667 65.4287 12.331C65.7518 11.6918 66.2028 11.1947 66.7816 10.8395C67.3605 10.4809 68.0405 10.3016 68.8218 10.3016C69.326 10.3016 69.8019 10.3832 70.2493 10.5466C70.7003 10.7064 71.0981 10.955 71.4425 11.2923C71.7905 11.6297 72.064 12.0594 72.2628 12.5814C72.4617 13.0998 72.5611 13.7177 72.5611 14.4351V15.0263H65.8548V13.7266H70.7128C70.7092 13.3573 70.6293 13.0288 70.4731 12.7412C70.3168 12.45 70.0984 12.2209 69.8179 12.054C69.5409 11.8871 69.2177 11.8037 68.8484 11.8037C68.4542 11.8037 68.108 11.8996 67.8097 12.0913C67.5114 12.2795 67.2788 12.5281 67.1119 12.8371C66.9486 13.1425 66.8651 13.478 66.8616 13.8438V14.9784C66.8616 15.4543 66.9486 15.8626 67.1226 16.2035C67.2966 16.5409 67.5398 16.8001 67.8523 16.9812C68.1648 17.1588 68.5306 17.2476 68.9496 17.2476C69.2302 17.2476 69.4841 17.2085 69.7113 17.1304C69.9386 17.0487 70.1357 16.9297 70.3026 16.7735C70.4695 16.6172 70.5956 16.4237 70.6808 16.1929L72.4812 16.3953C72.3676 16.8712 72.151 17.2866 71.8314 17.6418C71.5153 17.9933 71.1105 18.2668 70.6169 18.4621C70.1233 18.6538 69.5586 18.7497 68.923 18.7497ZM78.3366 10.4081V11.8996H73.5V10.4081H78.3366ZM74.7091 18.5899V9.63571C74.7091 9.08529 74.8228 8.62719 75.05 8.26142C75.2809 7.89566 75.5898 7.62222 75.9769 7.44111C76.3639 7.26 76.7936 7.16945 77.2659 7.16945C77.5997 7.16945 77.8963 7.19608 78.1555 7.24935C78.4147 7.30262 78.6065 7.35056 78.7308 7.39317L78.3473 8.88465C78.2656 8.85979 78.1626 8.83493 78.0383 8.81007C77.914 8.78167 77.7755 8.76746 77.6228 8.76746C77.2642 8.76746 77.0103 8.85446 76.8611 9.02847C76.7155 9.19892 76.6427 9.44395 76.6427 9.76356V18.5899H74.7091ZM79.8467 18.5899V10.4081H81.775V18.5899H79.8467ZM80.8162 9.24687C80.5108 9.24687 80.248 9.14566 80.0278 8.94324C79.8077 8.73728 79.6976 8.49047 79.6976 8.20283C79.6976 7.91164 79.8077 7.66483 80.0278 7.46242C80.248 7.25645 80.5108 7.15347 80.8162 7.15347C81.1251 7.15347 81.3879 7.25645 81.6045 7.46242C81.8247 7.66483 81.9348 7.91164 81.9348 8.20283C81.9348 8.49047 81.8247 8.73728 81.6045 8.94324C81.3879 9.14566 81.1251 9.24687 80.8162 9.24687ZM87.8434 10.4081V11.8996H83.14V10.4081H87.8434ZM84.3012 8.44786H86.2294V16.129C86.2294 16.3882 86.2685 16.5871 86.3466 16.7256C86.4283 16.8605 86.5348 16.9528 86.6662 17.0025C86.7976 17.0523 86.9432 17.0771 87.103 17.0771C87.2238 17.0771 87.3339 17.0682 87.4333 17.0505C87.5363 17.0327 87.6144 17.0168 87.6677 17.0025L87.9926 18.51C87.8896 18.5455 87.7422 18.5846 87.5505 18.6272C87.3623 18.6698 87.1314 18.6947 86.858 18.7018C86.375 18.716 85.94 18.6432 85.553 18.4834C85.1659 18.32 84.8587 18.0679 84.6314 17.727C84.4077 17.3861 84.2976 16.9599 84.3012 16.4486V8.44786ZM95.8055 12.5707L94.0477 12.7625C93.998 12.5849 93.911 12.418 93.7867 12.2618C93.666 12.1055 93.5026 11.9795 93.2967 11.8836C93.0907 11.7877 92.8386 11.7398 92.5403 11.7398C92.139 11.7398 91.8016 11.8268 91.5282 12.0008C91.2583 12.1748 91.1251 12.4003 91.1287 12.6773C91.1251 12.9152 91.2121 13.1087 91.3897 13.2579C91.5708 13.407 91.8691 13.5295 92.2846 13.6254L93.6802 13.9237C94.4543 14.0906 95.0296 14.3552 95.406 14.7174C95.786 15.0796 95.9778 15.5537 95.9813 16.1396C95.9778 16.6545 95.8268 17.1091 95.5285 17.5033C95.2338 17.8939 94.8236 18.1993 94.2981 18.4195C93.7725 18.6396 93.1688 18.7497 92.487 18.7497C91.4856 18.7497 90.6795 18.5402 90.0687 18.1212C89.4579 17.6986 89.0939 17.1109 88.9767 16.358L90.857 16.1769C90.9422 16.5462 91.1234 16.825 91.4003 17.0132C91.6773 17.2014 92.0378 17.2955 92.4817 17.2955C92.9398 17.2955 93.3073 17.2014 93.5843 17.0132C93.8648 16.825 94.0051 16.5924 94.0051 16.3154C94.0051 16.081 93.9146 15.8875 93.7334 15.7348C93.5559 15.5821 93.2789 15.4649 92.9025 15.3832L91.5069 15.0903C90.7221 14.9269 90.1415 14.6517 89.765 14.2646C89.3886 13.874 89.2022 13.3804 89.2057 12.7838C89.2022 12.2795 89.3389 11.8427 89.6159 11.4734C89.8964 11.1006 90.2853 10.8129 90.7824 10.6105C91.2832 10.4045 91.8602 10.3016 92.5136 10.3016C93.4724 10.3016 94.2271 10.5057 94.7775 10.9141C95.3315 11.3225 95.6741 11.8747 95.8055 12.5707Z" fill="white"/>
</svg>
