<svg width="109" height="28" viewBox="0 0 109 28" fill="none" xmlns="http://www.w3.org/2000/svg">
<rect y="0.361084" width="109" height="27" rx="13.5" fill="#E19B14" fill-opacity="0.96"/>
<mask id="mask0_403_410" style="mask-type:alpha" maskUnits="userSpaceOnUse" x="12" y="3" width="20" height="21">
<rect x="12" y="3.86108" width="20" height="20" fill="#D9D9D9"/>
</mask>
<g mask="url(#mask0_403_410)">
<path d="M19.935 12.2515C19.9845 11.4505 20.385 10.6599 21.0794 10.1761C20.9441 9.89527 20.6658 9.70021 20.3356 9.70021H19.5709L20.3694 9.12806C20.5566 8.99542 20.6008 8.73535 20.4656 8.5481L20.2237 8.21001C20.0911 8.02276 19.831 7.97854 19.6438 8.11378L18.8115 8.70934L19.1106 7.91353C19.1912 7.69767 19.082 7.4584 18.8662 7.37778L18.476 7.23214C18.2602 7.15152 18.0209 7.26075 17.9403 7.47661L17.4228 8.85498L16.9052 7.47401C16.8246 7.25815 16.5853 7.14892 16.3695 7.22954L15.9794 7.37518C15.7635 7.4558 15.6543 7.69767 15.7375 7.91092L16.0366 8.70674L15.2018 8.11378C15.0145 7.98114 14.7544 8.02276 14.6218 8.21001L14.3799 8.5481C14.2473 8.73535 14.2889 8.99542 14.4762 9.12806L15.2746 9.70021H14.51C14.0496 9.70021 13.6777 10.0721 13.6777 10.5324V19.6869C13.6777 20.1473 14.0496 20.5192 14.51 20.5192H18.9026C18.7595 20.2721 18.6711 19.9912 18.6711 19.6869V13.8613C18.6711 13.0837 19.212 12.431 19.935 12.2515ZM19.5033 19.6869C19.5033 20.1473 19.8752 20.5192 20.3356 20.5192H24.4967V17.1903H19.5033V19.6869ZM25.3289 20.5192H29.49C29.9504 20.5192 30.3223 20.1473 30.3223 19.6869V17.1903H25.3289V20.5192ZM29.49 13.0291H28.9595C29.0271 12.8315 29.0739 12.626 29.0739 12.4102C29.0739 11.4869 28.3717 10.5324 27.1988 10.5324C25.9479 10.5324 25.2249 11.773 24.9128 12.4908C24.5981 11.773 23.8751 10.5324 22.6268 10.5324C21.4539 10.5324 20.7517 11.4869 20.7517 12.4102C20.7517 12.626 20.7959 12.8315 20.8661 13.0291H20.3356C19.8752 13.0291 19.5033 13.401 19.5033 13.8613V16.358H24.4967V13.0291H24.8946L24.9128 13.0239L24.931 13.0291H25.3289V16.358H30.3223V13.8613C30.3223 13.401 29.9504 13.0291 29.49 13.0291ZM22.4161 13.0291C22.3459 12.9927 22.2835 12.9511 22.2289 12.9043C22.039 12.7378 22 12.5454 22 12.4102C22 12.1579 22.1665 11.7808 22.6268 11.7808C23.1131 11.7808 23.5526 12.4934 23.7841 13.0291H22.4161ZM27.5967 12.9043C27.5421 12.9511 27.4797 12.9927 27.4095 13.0291H26.0415C26.2704 12.5012 26.7125 11.7808 27.1988 11.7808C27.6592 11.7808 27.8256 12.1579 27.8256 12.4102C27.8256 12.5454 27.7866 12.7378 27.5967 12.9043Z" fill="white"/>
</g>
<path d="M37.4954 18.8611V7.95199H41.6716C42.4599 7.95199 43.1151 8.07628 43.6371 8.32486C44.1627 8.56989 44.5551 8.90547 44.8143 9.33161C45.0771 9.75775 45.2085 10.2407 45.2085 10.7805C45.2085 11.2244 45.1233 11.6043 44.9528 11.9204C44.7824 12.2329 44.5533 12.4868 44.2657 12.6821C43.978 12.8774 43.6566 13.0177 43.3015 13.1029V13.2095C43.6886 13.2308 44.0597 13.3497 44.4148 13.5663C44.7735 13.7794 45.0665 14.0813 45.2937 14.4719C45.521 14.8625 45.6346 15.3348 45.6346 15.8888C45.6346 16.4534 45.4979 16.9612 45.2245 17.4122C44.951 17.8597 44.5391 18.213 43.9887 18.4722C43.4383 18.7315 42.7458 18.8611 41.9113 18.8611H37.4954ZM39.4716 17.2098H41.597C42.3143 17.2098 42.831 17.0731 43.1471 16.7996C43.4667 16.5227 43.6265 16.1675 43.6265 15.7343C43.6265 15.4112 43.5466 15.12 43.3868 14.8607C43.227 14.5979 42.9997 14.392 42.7049 14.2428C42.4102 14.0901 42.0586 14.0138 41.6503 14.0138H39.4716V17.2098ZM39.4716 12.5916H41.4265C41.7674 12.5916 42.0746 12.5294 42.3481 12.4051C42.6215 12.2773 42.8363 12.0979 42.9926 11.8671C43.1524 11.6327 43.2323 11.3558 43.2323 11.0362C43.2323 10.6136 43.0831 10.2656 42.7848 9.99212C42.4901 9.71868 42.0515 9.58196 41.4691 9.58196H39.4716V12.5916ZM50.8908 19.0209C50.0704 19.0209 49.362 18.8504 48.7654 18.5095C48.1724 18.1651 47.716 17.6786 47.3964 17.05C47.0768 16.4179 46.917 15.6739 46.917 14.8181C46.917 13.9765 47.0768 13.2379 47.3964 12.6022C47.7196 11.963 48.1706 11.4658 48.7494 11.1107C49.3283 10.7521 50.0083 10.5727 50.7896 10.5727C51.2938 10.5727 51.7697 10.6544 52.2171 10.8178C52.6681 10.9776 53.0658 11.2261 53.4103 11.5635C53.7583 11.9009 54.0317 12.3305 54.2306 12.8526C54.4295 13.371 54.5289 13.9889 54.5289 14.7063V15.2975H47.8226V13.9978H52.6805C52.677 13.6285 52.5971 13.3 52.4408 13.0124C52.2846 12.7212 52.0662 12.4921 51.7856 12.3252C51.5087 12.1583 51.1855 12.0749 50.8162 12.0749C50.422 12.0749 50.0758 12.1707 49.7775 12.3625C49.4792 12.5507 49.2466 12.7993 49.0797 13.1082C48.9163 13.4136 48.8329 13.7492 48.8293 14.115V15.2496C48.8293 15.7254 48.9163 16.1338 49.0903 16.4747C49.2643 16.8121 49.5076 17.0713 49.8201 17.2524C50.1326 17.43 50.4984 17.5188 50.9174 17.5188C51.1979 17.5188 51.4518 17.4797 51.6791 17.4016C51.9064 17.3199 52.1035 17.2009 52.2704 17.0447C52.4373 16.8884 52.5633 16.6949 52.6486 16.4641L54.449 16.6665C54.3354 17.1423 54.1187 17.5578 53.7991 17.9129C53.4831 18.2645 53.0783 18.5379 52.5847 18.7332C52.091 18.925 51.5264 19.0209 50.8908 19.0209ZM58.0885 14.067V18.8611H56.1602V10.6793H58.0032V12.0695H58.0991C58.2873 11.6114 58.5874 11.2474 58.9993 10.9776C59.4148 10.7077 59.928 10.5727 60.5388 10.5727C61.1034 10.5727 61.5952 10.6935 62.0142 10.9349C62.4368 11.1764 62.7635 11.5262 62.9944 11.9843C63.2287 12.4424 63.3441 12.9982 63.3406 13.6516V18.8611H61.4123V13.9499C61.4123 13.403 61.2703 12.9751 60.9862 12.6661C60.7057 12.3572 60.3168 12.2027 59.8196 12.2027C59.4823 12.2027 59.1822 12.2773 58.9194 12.4264C58.6602 12.572 58.456 12.7833 58.3069 13.0603C58.1613 13.3373 58.0885 13.6729 58.0885 14.067ZM68.923 19.0209C68.1027 19.0209 67.3942 18.8504 66.7976 18.5095C66.2046 18.1651 65.7483 17.6786 65.4287 17.05C65.1091 16.4179 64.9493 15.6739 64.9493 14.8181C64.9493 13.9765 65.1091 13.2379 65.4287 12.6022C65.7518 11.963 66.2028 11.4658 66.7816 11.1107C67.3605 10.7521 68.0405 10.5727 68.8218 10.5727C69.326 10.5727 69.8019 10.6544 70.2493 10.8178C70.7003 10.9776 71.0981 11.2261 71.4425 11.5635C71.7905 11.9009 72.064 12.3305 72.2628 12.8526C72.4617 13.371 72.5611 13.9889 72.5611 14.7063V15.2975H65.8548V13.9978H70.7128C70.7092 13.6285 70.6293 13.3 70.4731 13.0124C70.3168 12.7212 70.0984 12.4921 69.8179 12.3252C69.5409 12.1583 69.2177 12.0749 68.8484 12.0749C68.4542 12.0749 68.108 12.1707 67.8097 12.3625C67.5114 12.5507 67.2788 12.7993 67.1119 13.1082C66.9486 13.4136 66.8651 13.7492 66.8616 14.115V15.2496C66.8616 15.7254 66.9486 16.1338 67.1226 16.4747C67.2966 16.8121 67.5398 17.0713 67.8523 17.2524C68.1648 17.43 68.5306 17.5188 68.9496 17.5188C69.2302 17.5188 69.4841 17.4797 69.7113 17.4016C69.9386 17.3199 70.1357 17.2009 70.3026 17.0447C70.4695 16.8884 70.5956 16.6949 70.6808 16.4641L72.4812 16.6665C72.3676 17.1423 72.151 17.5578 71.8314 17.9129C71.5153 18.2645 71.1105 18.5379 70.6169 18.7332C70.1233 18.925 69.5586 19.0209 68.923 19.0209ZM78.3366 10.6793V12.1707H73.5V10.6793H78.3366ZM74.7091 18.8611V9.90689C74.7091 9.35647 74.8228 8.89837 75.05 8.5326C75.2809 8.16684 75.5898 7.8934 75.9769 7.71229C76.3639 7.53118 76.7936 7.44063 77.2659 7.44063C77.5997 7.44063 77.8963 7.46726 78.1555 7.52053C78.4147 7.5738 78.6065 7.62174 78.7308 7.66435L78.3473 9.15583C78.2656 9.13097 78.1626 9.10611 78.0383 9.08125C77.914 9.05284 77.7755 9.03864 77.6228 9.03864C77.2642 9.03864 77.0103 9.12564 76.8611 9.29965C76.7155 9.4701 76.6427 9.71513 76.6427 10.0347V18.8611H74.7091ZM79.8467 18.8611V10.6793H81.775V18.8611H79.8467ZM80.8162 9.51804C80.5108 9.51804 80.248 9.41684 80.0278 9.21442C79.8077 9.00846 79.6976 8.76165 79.6976 8.47401C79.6976 8.18282 79.8077 7.93601 80.0278 7.7336C80.248 7.52763 80.5108 7.42465 80.8162 7.42465C81.1251 7.42465 81.3879 7.52763 81.6045 7.7336C81.8247 7.93601 81.9348 8.18282 81.9348 8.47401C81.9348 8.76165 81.8247 9.00846 81.6045 9.21442C81.3879 9.41684 81.1251 9.51804 80.8162 9.51804ZM87.8434 10.6793V12.1707H83.14V10.6793H87.8434ZM84.3012 8.71904H86.2294V16.4001C86.2294 16.6594 86.2685 16.8582 86.3466 16.9967C86.4283 17.1317 86.5348 17.224 86.6662 17.2737C86.7976 17.3234 86.9432 17.3483 87.103 17.3483C87.2238 17.3483 87.3339 17.3394 87.4333 17.3217C87.5363 17.3039 87.6144 17.2879 87.6677 17.2737L87.9926 18.7812C87.8896 18.8167 87.7422 18.8558 87.5505 18.8984C87.3623 18.941 87.1314 18.9658 86.858 18.9729C86.375 18.9871 85.94 18.9144 85.553 18.7545C85.1659 18.5912 84.8587 18.3391 84.6314 17.9982C84.4077 17.6572 84.2976 17.2311 84.3012 16.7197V8.71904ZM95.8055 12.8419L94.0477 13.0337C93.998 12.8561 93.911 12.6892 93.7867 12.533C93.666 12.3767 93.5026 12.2506 93.2967 12.1548C93.0907 12.0589 92.8386 12.0109 92.5403 12.0109C92.139 12.0109 91.8016 12.0979 91.5282 12.272C91.2583 12.446 91.1251 12.6715 91.1287 12.9484C91.1251 13.1864 91.2121 13.3799 91.3897 13.5291C91.5708 13.6782 91.8691 13.8007 92.2846 13.8966L93.6802 14.1949C94.4543 14.3618 95.0296 14.6264 95.406 14.9886C95.786 15.3508 95.9778 15.8249 95.9813 16.4108C95.9778 16.9257 95.8268 17.3803 95.5285 17.7744C95.2338 18.1651 94.8236 18.4705 94.2981 18.6906C93.7725 18.9108 93.1688 19.0209 92.487 19.0209C91.4856 19.0209 90.6795 18.8114 90.0687 18.3923C89.4579 17.9697 89.0939 17.382 88.9767 16.6292L90.857 16.4481C90.9422 16.8174 91.1234 17.0962 91.4003 17.2844C91.6773 17.4726 92.0378 17.5667 92.4817 17.5667C92.9398 17.5667 93.3073 17.4726 93.5843 17.2844C93.8648 17.0962 94.0051 16.8636 94.0051 16.5866C94.0051 16.3522 93.9146 16.1587 93.7334 16.006C93.5559 15.8533 93.2789 15.7361 92.9025 15.6544L91.5069 15.3614C90.7221 15.1981 90.1415 14.9229 89.765 14.5358C89.3886 14.1452 89.2022 13.6516 89.2057 13.055C89.2022 12.5507 89.3389 12.1139 89.6159 11.7446C89.8964 11.3717 90.2853 11.0841 90.7824 10.8817C91.2832 10.6757 91.8602 10.5727 92.5136 10.5727C93.4724 10.5727 94.2271 10.7769 94.7775 11.1853C95.3315 11.5937 95.6741 12.1459 95.8055 12.8419Z" fill="white"/>
</svg>
