<svg width="36" height="36" viewBox="0 0 36 36" fill="none" xmlns="http://www.w3.org/2000/svg">
<rect width="36" height="36" rx="18" fill="#4C5E6B"/>
<mask id="mask0_14_913" style="mask-type:alpha" maskUnits="userSpaceOnUse" x="7" y="7" width="22" height="22">
<rect x="7" y="7" width="22" height="22" fill="#D9D9D9"/>
</mask>
<g mask="url(#mask0_14_913)">
<path d="M18 19.818L19.4666 20.9639C19.6143 21.081 19.7671 21.0848 19.925 20.9754C20.0828 20.8659 20.1338 20.7194 20.0778 20.5361L19.4972 18.7028L21.0173 17.4653C21.1548 17.3481 21.1956 17.2043 21.1396 17.0337C21.0835 16.8631 20.9639 16.7778 20.7805 16.7778H18.9778L18.359 14.9521C18.2928 14.7789 18.1731 14.6924 18 14.6924C17.8268 14.6924 17.7072 14.7789 17.6409 14.9521L17.0222 16.7778H15.2118C15.0284 16.7778 14.91 16.8631 14.8566 17.0337C14.8031 17.2043 14.8451 17.3481 14.9826 17.4653L16.4875 18.7028L15.9069 20.5437C15.8509 20.7271 15.8993 20.8735 16.0521 20.983C16.2048 21.0925 16.3576 21.0887 16.5104 20.9715L18 19.818ZM10.3611 25.3333C9.9384 25.3333 9.5781 25.1844 9.28019 24.8865C8.98227 24.5885 8.83331 24.2282 8.83331 23.8056V20.7577C8.83331 20.5998 8.87915 20.4623 8.97081 20.3452C9.06248 20.228 9.18216 20.1491 9.32985 20.1083C9.7678 19.9556 10.1154 19.6806 10.3726 19.2833C10.6297 18.8861 10.7583 18.4583 10.7583 18C10.7583 17.5519 10.6297 17.1266 10.3726 16.7243C10.1154 16.322 9.7678 16.0444 9.32985 15.8917C9.18216 15.8509 9.06248 15.772 8.97081 15.6548C8.87915 15.5377 8.83331 15.4002 8.83331 15.2423V12.1944C8.83331 11.7718 8.98227 11.4115 9.28019 11.1135C9.5781 10.8156 9.9384 10.6667 10.3611 10.6667H25.6389C26.0616 10.6667 26.4219 10.8156 26.7198 11.1135C27.0177 11.4115 27.1666 11.7718 27.1666 12.1944V15.2423C27.1666 15.4002 27.1208 15.5377 27.0291 15.6548C26.9375 15.772 26.8178 15.8509 26.6701 15.8917C26.2322 16.0444 25.8846 16.322 25.6274 16.7243C25.3702 17.1266 25.2416 17.5519 25.2416 18C25.2416 18.4583 25.3702 18.8861 25.6274 19.2833C25.8846 19.6806 26.2322 19.9556 26.6701 20.1083C26.8178 20.1491 26.9375 20.228 27.0291 20.3452C27.1208 20.4623 27.1666 20.5998 27.1666 20.7577V23.8056C27.1666 24.2282 27.0177 24.5885 26.7198 24.8865C26.4219 25.1844 26.0616 25.3333 25.6389 25.3333H10.3611ZM10.3611 23.8056H25.6389V21.3611C25.0634 20.9843 24.5987 20.5043 24.2448 19.9212C23.8908 19.3381 23.7139 18.6977 23.7139 18C23.7139 17.3023 23.8908 16.6619 24.2448 16.0788C24.5987 15.4957 25.0634 15.0157 25.6389 14.6389V12.1944H10.3611V14.6389C10.9467 15.0157 11.414 15.4957 11.7628 16.0788C12.1117 16.6619 12.2861 17.3023 12.2861 18C12.2861 18.6977 12.1117 19.3381 11.7628 19.9212C11.414 20.5043 10.9467 20.9843 10.3611 21.3611V23.8056Z" fill="white"/>
</g>
</svg>
