<svg width="370" height="60" viewBox="0 0 370 60" fill="none" xmlns="http://www.w3.org/2000/svg">
<g clip-path="url(#clip0_9_187)">
<rect width="370" height="60" rx="16" fill="white" fill-opacity="0.04" style="mix-blend-mode:lighten"/>
<rect width="370" height="60" rx="16" fill="#5E5E5E" fill-opacity="0.06" style="mix-blend-mode:color-dodge"/>
<ellipse cx="104" cy="50" rx="120" ry="60" fill="url(#paint0_radial_9_187)"/>
<ellipse cx="104" cy="50" rx="120" ry="60" fill="url(#paint1_radial_9_187)" style="mix-blend-mode:color-dodge"/>
<rect x="20" y="12" width="36" height="36" rx="18" fill="#4C5E6B"/>
<mask id="mask0_9_187" style="mask-type:alpha" maskUnits="userSpaceOnUse" x="27" y="19" width="22" height="22">
<rect x="27" y="19" width="22" height="22" fill="#D9D9D9"/>
</mask>
<g mask="url(#mask0_9_187)">
<path d="M47.4109 23.7092C46.1988 23.1955 44.9857 23 43.7732 23C39.9242 22.9997 36.0755 24.9685 32.2265 24.9685C31.2612 24.9685 30.2965 24.8447 29.3312 24.5353C29.2228 24.5005 29.114 24.4841 29.0078 24.4841C28.47 24.4841 28 24.9047 28 25.4886V35.5066C28 35.9054 28.2259 36.2834 28.5887 36.4368C29.8009 36.9509 31.014 37.1463 32.2265 37.1463C36.0755 37.1463 39.9245 35.1775 43.7735 35.1775C44.7388 35.1775 45.7035 35.3013 46.6688 35.6108C46.7772 35.6455 46.886 35.6619 46.9922 35.6619C47.53 35.6619 48 35.2413 48 34.6575V24.6398C47.9997 24.2406 47.7738 23.863 47.4109 23.7092ZM29.5 26.1646C30.1287 26.3238 30.785 26.4036 31.4599 26.4466C31.2762 27.3746 30.4687 28.0741 29.5 28.0741V26.1646ZM29.5 35.164V33.6552C30.574 33.6552 31.4431 34.5163 31.4909 35.594C30.7868 35.5369 30.1287 35.3948 29.5 35.164ZM37.9998 33.1045C36.6189 33.1045 35.4999 31.747 35.4999 30.0732C35.4999 28.399 36.6192 27.0418 37.9998 27.0418C39.3804 27.0418 40.4998 28.399 40.4998 30.0732C40.4998 31.7477 39.3801 33.1045 37.9998 33.1045ZM46.4997 33.9817C45.9522 33.8431 45.3838 33.7654 44.8022 33.7152C44.9857 32.8917 45.6616 32.2665 46.4997 32.1591V33.9817ZM46.4997 26.5262C45.5344 26.4027 44.7854 25.5883 44.7557 24.5826C45.3663 24.6511 45.946 24.7793 46.4997 24.9824V26.5262Z" fill="white"/>
</g>
<path d="M65.4972 36V23.6364H66.9943V34.6719H72.7415V36H65.4972ZM78.7543 36.1932C77.8608 36.1932 77.0901 35.996 76.4421 35.6016C75.7982 35.2031 75.3011 34.6477 74.951 33.9354C74.6049 33.219 74.4318 32.3859 74.4318 31.4361C74.4318 30.4863 74.6049 29.6491 74.951 28.9247C75.3011 28.1963 75.7881 27.6288 76.4119 27.2223C77.0398 26.8118 77.7723 26.6065 78.6094 26.6065C79.0923 26.6065 79.5692 26.687 80.0401 26.848C80.511 27.009 80.9396 27.2706 81.326 27.6328C81.7124 27.991 82.0202 28.4659 82.2496 29.0575C82.479 29.6491 82.5938 30.3776 82.5938 31.2429V31.8466H75.446V30.6151H81.1449C81.1449 30.0919 81.0402 29.625 80.831 29.2145C80.6257 28.804 80.3319 28.48 79.9496 28.2425C79.5713 28.0051 79.1245 27.8864 78.6094 27.8864C78.0419 27.8864 77.5509 28.0272 77.1364 28.3089C76.7259 28.5866 76.4099 28.9489 76.1886 29.3956C75.9672 29.8423 75.8565 30.3213 75.8565 30.8324V31.6534C75.8565 32.3537 75.9773 32.9473 76.2188 33.4343C76.4643 33.9173 76.8043 34.2855 77.239 34.5391C77.6737 34.7886 78.1787 34.9134 78.7543 34.9134C79.1286 34.9134 79.4666 34.861 79.7685 34.7564C80.0743 34.6477 80.338 34.4867 80.5593 34.2734C80.7807 34.0561 80.9517 33.7865 81.0724 33.4645L82.4489 33.8509C82.304 34.3177 82.0605 34.7282 81.7184 35.0824C81.3763 35.4325 80.9537 35.7062 80.4506 35.9034C79.9476 36.0966 79.3821 36.1932 78.7543 36.1932ZM91.3292 28.804L90.0494 29.1662C89.9689 28.9529 89.8501 28.7456 89.6932 28.5444C89.5402 28.3391 89.331 28.1701 89.0653 28.0373C88.7997 27.9045 88.4596 27.8381 88.0451 27.8381C87.4776 27.8381 87.0047 27.9689 86.6264 28.2305C86.2521 28.488 86.065 28.8161 86.065 29.2145C86.065 29.5687 86.1938 29.8484 86.4513 30.0536C86.7089 30.2589 87.1114 30.4299 87.6587 30.5668L89.0352 30.9048C89.8642 31.1061 90.482 31.4139 90.8885 31.8285C91.295 32.239 91.4982 32.7682 91.4982 33.4162C91.4982 33.9474 91.3453 34.4223 91.0394 34.8409C90.7376 35.2595 90.315 35.5895 89.7717 35.831C89.2283 36.0724 88.5965 36.1932 87.8761 36.1932C86.9303 36.1932 86.1475 35.9879 85.5277 35.5774C84.9079 35.1669 84.5155 34.5672 84.3505 33.7784L85.7028 33.4403C85.8316 33.9394 86.075 34.3137 86.4332 34.5632C86.7955 34.8127 87.2683 34.9375 87.8519 34.9375C88.516 34.9375 89.0432 34.7966 89.4336 34.5149C89.828 34.2292 90.0252 33.8871 90.0252 33.4886C90.0252 33.1667 89.9125 32.897 89.6871 32.6797C89.4618 32.4583 89.1156 32.2933 88.6488 32.1847L87.1033 31.8224C86.2541 31.6212 85.6303 31.3093 85.2319 30.8867C84.8375 30.4601 84.6403 29.9268 84.6403 29.2869C84.6403 28.7637 84.7872 28.3009 85.081 27.8984C85.3788 27.496 85.7833 27.18 86.2944 26.9506C86.8095 26.7212 87.3931 26.6065 88.0451 26.6065C88.9627 26.6065 89.6831 26.8078 90.2063 27.2102C90.7335 27.6127 91.1078 28.1439 91.3292 28.804ZM98.4241 36V26.7273H99.8005V28.1278H99.8971C100.066 27.669 100.372 27.2968 100.815 27.011C101.257 26.7253 101.756 26.5824 102.312 26.5824C102.417 26.5824 102.547 26.5844 102.704 26.5884C102.861 26.5924 102.98 26.5985 103.06 26.6065V28.0554C103.012 28.0433 102.901 28.0252 102.728 28.0011C102.559 27.9729 102.38 27.9588 102.191 27.9588C101.74 27.9588 101.338 28.0534 100.984 28.2425C100.634 28.4277 100.356 28.6853 100.151 29.0153C99.9494 29.3413 99.8488 29.7135 99.8488 30.1321V36H98.4241ZM108.355 36.1932C107.461 36.1932 106.691 35.996 106.043 35.6016C105.399 35.2031 104.902 34.6477 104.552 33.9354C104.205 33.219 104.032 32.3859 104.032 31.4361C104.032 30.4863 104.205 29.6491 104.552 28.9247C104.902 28.1963 105.389 27.6288 106.013 27.2223C106.64 26.8118 107.373 26.6065 108.21 26.6065C108.693 26.6065 109.17 26.687 109.641 26.848C110.112 27.009 110.54 27.2706 110.927 27.6328C111.313 27.991 111.621 28.4659 111.85 29.0575C112.08 29.6491 112.194 30.3776 112.194 31.2429V31.8466H105.047V30.6151H110.745C110.745 30.0919 110.641 29.625 110.432 29.2145C110.226 28.804 109.932 28.48 109.55 28.2425C109.172 28.0051 108.725 27.8864 108.21 27.8864C107.642 27.8864 107.151 28.0272 106.737 28.3089C106.326 28.5866 106.011 28.9489 105.789 29.3956C105.568 29.8423 105.457 30.3213 105.457 30.8324V31.6534C105.457 32.3537 105.578 32.9473 105.819 33.4343C106.065 33.9173 106.405 34.2855 106.84 34.5391C107.274 34.7886 107.779 34.9134 108.355 34.9134C108.729 34.9134 109.067 34.861 109.369 34.7564C109.675 34.6477 109.939 34.4867 110.16 34.2734C110.381 34.0561 110.552 33.7865 110.673 33.4645L112.049 33.8509C111.905 34.3177 111.661 34.7282 111.319 35.0824C110.977 35.4325 110.554 35.7062 110.051 35.9034C109.548 36.0966 108.983 36.1932 108.355 36.1932ZM118.129 36.1932C117.259 36.1932 116.511 35.9879 115.883 35.5774C115.255 35.1669 114.772 34.6014 114.434 33.881C114.096 33.1606 113.927 32.3376 113.927 31.4119C113.927 30.4702 114.1 29.6391 114.446 28.9187C114.796 28.1942 115.283 27.6288 115.907 27.2223C116.535 26.8118 117.267 26.6065 118.104 26.6065C118.756 26.6065 119.344 26.7273 119.867 26.9688C120.39 27.2102 120.819 27.5483 121.153 27.983C121.487 28.4176 121.694 28.9247 121.775 29.5043H120.35C120.242 29.0817 120 28.7074 119.626 28.3814C119.256 28.0514 118.756 27.8864 118.129 27.8864C117.573 27.8864 117.086 28.0312 116.668 28.321C116.253 28.6068 115.929 29.0112 115.696 29.5344C115.466 30.0536 115.352 30.6634 115.352 31.3636C115.352 32.08 115.464 32.7038 115.69 33.2351C115.919 33.7663 116.241 34.1789 116.656 34.4727C117.074 34.7665 117.565 34.9134 118.129 34.9134C118.499 34.9134 118.835 34.849 119.137 34.7202C119.439 34.5914 119.694 34.4062 119.903 34.1648C120.113 33.9233 120.262 33.6335 120.35 33.2955H121.775C121.694 33.8428 121.495 34.3358 121.177 34.7745C120.863 35.2092 120.447 35.5553 119.928 35.8129C119.412 36.0664 118.813 36.1932 118.129 36.1932ZM125.282 30.4219V36H123.858V23.6364H125.282V28.1761H125.403C125.62 27.6972 125.946 27.3169 126.381 27.0352C126.82 26.7494 127.403 26.6065 128.132 26.6065C128.764 26.6065 129.317 26.7333 129.792 26.9869C130.267 27.2364 130.635 27.6207 130.897 28.1399C131.162 28.6551 131.295 29.3111 131.295 30.108V36H129.87V30.2045C129.87 29.468 129.679 28.8986 129.297 28.4961C128.919 28.0896 128.393 27.8864 127.721 27.8864C127.254 27.8864 126.836 27.985 126.466 28.1822C126.099 28.3794 125.81 28.6671 125.596 29.0455C125.387 29.4238 125.282 29.8826 125.282 30.4219ZM136.63 36.2173C136.043 36.2173 135.509 36.1067 135.031 35.8853C134.552 35.6599 134.171 35.3359 133.89 34.9134C133.608 34.4867 133.467 33.9716 133.467 33.3679C133.467 32.8366 133.572 32.406 133.781 32.076C133.99 31.742 134.27 31.4804 134.62 31.2912C134.97 31.102 135.357 30.9612 135.779 30.8686C136.206 30.772 136.634 30.6955 137.065 30.6392C137.628 30.5668 138.085 30.5124 138.435 30.4762C138.79 30.436 139.047 30.3696 139.208 30.277C139.373 30.1844 139.456 30.0234 139.456 29.794V29.7457C139.456 29.1501 139.293 28.6873 138.967 28.3572C138.645 28.0272 138.156 27.8622 137.5 27.8622C136.819 27.8622 136.286 28.0111 135.9 28.3089C135.513 28.6068 135.242 28.9247 135.085 29.2628L133.733 28.7798C133.974 28.2164 134.296 27.7777 134.699 27.4638C135.105 27.1458 135.548 26.9245 136.027 26.7997C136.51 26.6709 136.984 26.6065 137.451 26.6065C137.749 26.6065 138.091 26.6428 138.478 26.7152C138.868 26.7836 139.244 26.9265 139.607 27.1438C139.973 27.3612 140.277 27.6892 140.518 28.1278C140.76 28.5665 140.88 29.1541 140.88 29.8906V36H139.456V34.7443H139.383C139.287 34.9455 139.126 35.1609 138.9 35.3903C138.675 35.6197 138.375 35.8149 138.001 35.9759C137.626 36.1368 137.17 36.2173 136.63 36.2173ZM136.848 34.9375C137.411 34.9375 137.886 34.8268 138.272 34.6055C138.663 34.3841 138.957 34.0984 139.154 33.7482C139.355 33.3981 139.456 33.0298 139.456 32.6435V31.3395C139.395 31.4119 139.262 31.4783 139.057 31.5387C138.856 31.5951 138.623 31.6454 138.357 31.6896C138.095 31.7299 137.84 31.7661 137.59 31.7983C137.345 31.8265 137.145 31.8506 136.993 31.8707C136.622 31.919 136.276 31.9975 135.954 32.1062C135.636 32.2108 135.379 32.3698 135.181 32.5831C134.988 32.7924 134.892 33.0781 134.892 33.4403C134.892 33.9354 135.075 34.3097 135.441 34.5632C135.811 34.8127 136.28 34.9375 136.848 34.9375ZM143.481 36V26.7273H144.857V28.1278H144.954C145.123 27.669 145.429 27.2968 145.871 27.011C146.314 26.7253 146.813 26.5824 147.369 26.5824C147.473 26.5824 147.604 26.5844 147.761 26.5884C147.918 26.5924 148.037 26.5985 148.117 26.6065V28.0554C148.069 28.0433 147.958 28.0252 147.785 28.0011C147.616 27.9729 147.437 27.9588 147.248 27.9588C146.797 27.9588 146.395 28.0534 146.04 28.2425C145.69 28.4277 145.413 28.6853 145.207 29.0153C145.006 29.3413 144.905 29.7135 144.905 30.1321V36H143.481ZM153.267 39.6705C152.578 39.6705 151.987 39.5819 151.492 39.4048C150.997 39.2318 150.584 39.0024 150.254 38.7166C149.928 38.4349 149.669 38.133 149.475 37.8111L150.61 37.0142C150.739 37.1832 150.902 37.3764 151.099 37.5938C151.297 37.8151 151.566 38.0063 151.908 38.1673C152.254 38.3323 152.707 38.4148 153.267 38.4148C154.015 38.4148 154.633 38.2337 155.12 37.8714C155.607 37.5092 155.85 36.9418 155.85 36.169V34.2855H155.73C155.625 34.4545 155.476 34.6638 155.283 34.9134C155.094 35.1589 154.82 35.3782 154.462 35.5714C154.108 35.7605 153.629 35.8551 153.025 35.8551C152.277 35.8551 151.604 35.678 151.009 35.3239C150.417 34.9697 149.948 34.4545 149.602 33.7784C149.26 33.1023 149.089 32.2812 149.089 31.3153C149.089 30.3655 149.256 29.5385 149.59 28.8342C149.924 28.1258 150.389 27.5785 150.985 27.1921C151.58 26.8017 152.268 26.6065 153.049 26.6065C153.653 26.6065 154.132 26.7071 154.486 26.9084C154.844 27.1056 155.118 27.331 155.307 27.5845C155.5 27.834 155.649 28.0393 155.754 28.2003H155.899V26.7273H157.275V36.2656C157.275 37.0625 157.094 37.7105 156.732 38.2095C156.374 38.7126 155.891 39.0808 155.283 39.3143C154.679 39.5517 154.007 39.6705 153.267 39.6705ZM153.218 34.5753C153.79 34.5753 154.273 34.4445 154.667 34.1829C155.062 33.9213 155.361 33.545 155.567 33.054C155.772 32.563 155.875 31.9754 155.875 31.2912C155.875 30.6231 155.774 30.0335 155.573 29.5224C155.371 29.0112 155.074 28.6108 154.679 28.321C154.285 28.0312 153.798 27.8864 153.218 27.8864C152.615 27.8864 152.112 28.0393 151.709 28.3452C151.311 28.651 151.011 29.0616 150.81 29.5767C150.612 30.0919 150.514 30.6634 150.514 31.2912C150.514 31.9351 150.614 32.5046 150.816 32.9996C151.021 33.4906 151.323 33.877 151.721 34.1587C152.124 34.4364 152.623 34.5753 153.218 34.5753ZM163.771 36.1932C162.877 36.1932 162.107 35.996 161.459 35.6016C160.815 35.2031 160.318 34.6477 159.968 33.9354C159.621 33.219 159.448 32.3859 159.448 31.4361C159.448 30.4863 159.621 29.6491 159.968 28.9247C160.318 28.1963 160.805 27.6288 161.429 27.2223C162.056 26.8118 162.789 26.6065 163.626 26.6065C164.109 26.6065 164.586 26.687 165.057 26.848C165.528 27.009 165.956 27.2706 166.343 27.6328C166.729 27.991 167.037 28.4659 167.266 29.0575C167.496 29.6491 167.61 30.3776 167.61 31.2429V31.8466H160.463V30.6151H166.161C166.161 30.0919 166.057 29.625 165.848 29.2145C165.642 28.804 165.349 28.48 164.966 28.2425C164.588 28.0051 164.141 27.8864 163.626 27.8864C163.059 27.8864 162.568 28.0272 162.153 28.3089C161.742 28.5866 161.427 28.9489 161.205 29.3956C160.984 29.8423 160.873 30.3213 160.873 30.8324V31.6534C160.873 32.3537 160.994 32.9473 161.235 33.4343C161.481 33.9173 161.821 34.2855 162.256 34.5391C162.69 34.7886 163.195 34.9134 163.771 34.9134C164.145 34.9134 164.483 34.861 164.785 34.7564C165.091 34.6477 165.355 34.4867 165.576 34.2734C165.797 34.0561 165.968 33.7865 166.089 33.4645L167.465 33.8509C167.321 34.3177 167.077 34.7282 166.735 35.0824C166.393 35.4325 165.97 35.7062 165.467 35.9034C164.964 36.0966 164.399 36.1932 163.771 36.1932ZM176.346 28.804L175.066 29.1662C174.985 28.9529 174.867 28.7456 174.71 28.5444C174.557 28.3391 174.348 28.1701 174.082 28.0373C173.816 27.9045 173.476 27.8381 173.062 27.8381C172.494 27.8381 172.021 27.9689 171.643 28.2305C171.269 28.488 171.082 28.8161 171.082 29.2145C171.082 29.5687 171.21 29.8484 171.468 30.0536C171.726 30.2589 172.128 30.4299 172.675 30.5668L174.052 30.9048C174.881 31.1061 175.499 31.4139 175.905 31.8285C176.312 32.239 176.515 32.7682 176.515 33.4162C176.515 33.9474 176.362 34.4223 176.056 34.8409C175.754 35.2595 175.332 35.5895 174.788 35.831C174.245 36.0724 173.613 36.1932 172.893 36.1932C171.947 36.1932 171.164 35.9879 170.544 35.5774C169.925 35.1669 169.532 34.5672 169.367 33.7784L170.719 33.4403C170.848 33.9394 171.092 34.3137 171.45 34.5632C171.812 34.8127 172.285 34.9375 172.869 34.9375C173.533 34.9375 174.06 34.7966 174.45 34.5149C174.845 34.2292 175.042 33.8871 175.042 33.4886C175.042 33.1667 174.929 32.897 174.704 32.6797C174.478 32.4583 174.132 32.2933 173.665 32.1847L172.12 31.8224C171.271 31.6212 170.647 31.3093 170.248 30.8867C169.854 30.4601 169.657 29.9268 169.657 29.2869C169.657 28.7637 169.804 28.3009 170.098 27.8984C170.395 27.496 170.8 27.18 171.311 26.9506C171.826 26.7212 172.41 26.6065 173.062 26.6065C173.979 26.6065 174.7 26.8078 175.223 27.2102C175.75 27.6127 176.124 28.1439 176.346 28.804Z" fill="white" fill-opacity="0.96"/>
<g clip-path="url(#clip1_9_187)">
<g style="mix-blend-mode:lighten">
<path d="M349.742 29.9159C349.742 30.0376 349.717 30.1511 349.667 30.2562C349.623 30.3614 349.554 30.4637 349.459 30.5634L344.421 35.5522C344.26 35.7182 344.064 35.8012 343.832 35.8012C343.594 35.8012 343.392 35.7209 343.226 35.5605C343.065 35.3944 342.985 35.1925 342.985 34.9545C342.985 34.7276 343.071 34.5256 343.242 34.3485L347.725 29.9159L343.242 25.4833C343.071 25.3062 342.985 25.1042 342.985 24.8773C342.985 24.6394 343.065 24.4401 343.226 24.2797C343.392 24.1192 343.594 24.0389 343.832 24.0389C344.064 24.0389 344.26 24.1192 344.421 24.2797L349.459 29.2684C349.648 29.4566 349.742 29.6724 349.742 29.9159Z" fill="white" fill-opacity="0.23"/>
</g>
<g style="mix-blend-mode:color-dodge">
<path d="M349.742 29.9159C349.742 30.0376 349.717 30.1511 349.667 30.2562C349.623 30.3614 349.554 30.4637 349.459 30.5634L344.421 35.5522C344.26 35.7182 344.064 35.8012 343.832 35.8012C343.594 35.8012 343.392 35.7209 343.226 35.5605C343.065 35.3944 342.985 35.1925 342.985 34.9545C342.985 34.7276 343.071 34.5256 343.242 34.3485L347.725 29.9159L343.242 25.4833C343.071 25.3062 342.985 25.1042 342.985 24.8773C342.985 24.6394 343.065 24.4401 343.226 24.2797C343.392 24.1192 343.594 24.0389 343.832 24.0389C344.064 24.0389 344.26 24.1192 344.421 24.2797L349.459 29.2684C349.648 29.4566 349.742 29.6724 349.742 29.9159Z" fill="#545454"/>
</g>
</g>
</g>
<rect x="0.5" y="0.5" width="369" height="59" rx="15.5" stroke="white" stroke-opacity="0.03"/>
<defs>
<radialGradient id="paint0_radial_9_187" cx="0" cy="0" r="1" gradientUnits="userSpaceOnUse" gradientTransform="translate(104 50) rotate(90) scale(60 120)">
<stop stop-color="white" stop-opacity="0.07"/>
<stop offset="1" stop-color="white" stop-opacity="0"/>
</radialGradient>
<radialGradient id="paint1_radial_9_187" cx="0" cy="0" r="1" gradientUnits="userSpaceOnUse" gradientTransform="translate(104 50) rotate(90) scale(60 120)">
<stop stop-color="#5E5E5E" stop-opacity="0.14"/>
<stop offset="1" stop-color="#5E5E5E" stop-opacity="0"/>
</radialGradient>
<clipPath id="clip0_9_187">
<rect width="370" height="60" rx="16" fill="white"/>
</clipPath>
<clipPath id="clip1_9_187">
<rect width="8" height="12" fill="white" transform="translate(342 24)"/>
</clipPath>
</defs>
</svg>
