<svg width="304" height="255" viewBox="0 0 304 255" fill="none" xmlns="http://www.w3.org/2000/svg">
<path fill-rule="evenodd" clip-rule="evenodd" d="M0 10C0 4.47715 4.47715 0 10 0H294C299.523 0 304 4.47715 304 10V245C304 250.523 299.523 255 294 255H10C4.47715 255 0 250.523 0 245V10ZM9.03906 175C9.03906 173.895 9.93449 173 11.0391 173H294.284C295.388 173 296.284 173.895 296.284 175V203C296.284 204.105 295.388 205 294.284 205H11.0391C9.93449 205 9.03906 204.105 9.03906 203V175ZM124.395 89.1571C121.788 89.3277 119.726 91.4963 119.726 94.1463V89.1463V78.7073C119.726 77.6027 120.622 76.7073 121.726 76.7073H146.877C147.981 76.7073 148.877 77.6027 148.877 78.7073V87.1463C148.877 88.2509 147.981 89.1463 146.877 89.1463L179.274 89.1463C182.035 89.1463 184.274 91.3849 184.274 94.1463V114.207C184.274 116.969 182.035 119.207 179.274 119.207H124.726C121.965 119.207 119.726 116.969 119.726 114.207V94.3293H120.247L122.849 90.1829L124.395 89.1571ZM124.411 89.1463L124.395 89.1571C124.504 89.15 124.615 89.1463 124.726 89.1463H124.411ZM9 216C9 213.791 10.7909 212 13 212H291C293.209 212 295 213.791 295 216V247C295 249.209 293.209 251 291 251H13C10.7909 251 9 249.209 9 247V216ZM247.527 38C241.728 38 237.027 42.701 237.027 48.5C237.027 54.299 241.728 59 247.527 59H279.757C285.556 59 290.257 54.299 290.257 48.5C290.257 42.701 285.556 38 279.757 38H247.527Z" fill="black" fill-opacity="0.63"/>
</svg>
